<svg width="84" height="31" viewBox="0 0 84 31" fill="none" xmlns="http://www.w3.org/2000/svg">
<g opacity="0.4" clip-path="url(#clip0)">
<path fill-rule="evenodd" clip-rule="evenodd" d="M79.4033 12.3614C79.4033 11.4477 80.122 10.7027 80.9853 10.7027C81.872 10.7027 82.5673 11.4477 82.5673 12.3614C82.5673 13.2751 81.872 14.0202 80.9853 14.0202C80.122 14.0436 79.4033 13.2986 79.4033 12.3614ZM80.9853 13.6594C81.6573 13.6594 82.18 13.083 82.18 12.3848C82.18 11.6867 81.6293 11.1103 80.9853 11.1103C80.3133 11.1103 79.786 11.6867 79.786 12.3848C79.786 13.083 80.3133 13.6594 80.9853 13.6594ZM80.766 13.1064H80.43V11.6398H81.0273C81.1487 11.6398 81.2887 11.6398 81.3867 11.7101C81.508 11.7804 81.5547 11.9256 81.5547 12.0709C81.5547 12.2396 81.4567 12.3848 81.3167 12.4317L81.578 13.083H81.2187L81.004 12.5067H80.766V13.1064ZM80.766 12.2911H80.9573C81.0273 12.2911 81.102 12.2911 81.1487 12.2677C81.1953 12.2443 81.2187 12.1693 81.2187 12.099C81.2187 12.0522 81.1953 11.9772 81.1487 11.9538C81.102 11.9303 81.004 11.9303 80.9573 11.9303H80.7893L80.766 12.2911Z" fill="#333333"/>
<path fill-rule="evenodd" clip-rule="evenodd" d="M56.784 1.28439L56.3547 4.11925C55.4213 3.61319 54.726 3.42108 53.984 3.42108C52.0193 3.42108 50.6333 5.44062 50.6333 8.2989C50.6333 10.2716 51.5667 11.4711 53.0973 11.4711C53.746 11.4711 54.46 11.2556 55.3467 10.7964L54.894 13.7765C53.914 14.067 53.2887 14.1607 52.5467 14.1607C49.7 14.1607 47.9267 11.9959 47.9267 8.53787C47.9267 3.88028 50.3673 0.60965 53.886 0.60965C54.3387 0.60965 54.7493 0.656507 55.0807 0.754907L56.182 1.04542C56.4713 1.16256 56.5413 1.18599 56.784 1.28439Z" fill="#333333"/>
<path fill-rule="evenodd" clip-rule="evenodd" d="M47.9967 3.22896C47.9267 3.20554 47.8287 3.20554 47.7353 3.20554C46.872 3.20554 46.3727 3.66005 45.556 4.93456L45.794 3.32268H43.4L41.7713 13.9218H44.4267C45.3833 7.43205 45.6213 6.32622 46.8907 6.32622C46.9607 6.32622 46.9887 6.32622 47.082 6.32622C47.32 5.05171 47.6327 4.11456 48.0853 3.24771L47.9967 3.22896Z" fill="#333333"/>
<path fill-rule="evenodd" clip-rule="evenodd" d="M32.172 13.7821C31.4533 14.0211 30.8793 14.1429 30.282 14.1429C28.9427 14.1429 28.2007 13.3276 28.2007 11.8094C28.2007 11.5189 28.224 11.1862 28.2707 10.8489L28.4387 9.81333L28.56 8.9699L29.708 1.73517H32.34L32.0273 3.29551H33.39L33.0073 5.86796H31.668L30.9727 10.2913C30.9493 10.4834 30.926 10.6286 30.926 10.7224C30.926 11.2753 31.2153 11.5142 31.836 11.5142C32.1487 11.5142 32.3633 11.4908 32.5547 11.4158L32.172 13.7821Z" fill="#333333"/>
<path fill-rule="evenodd" clip-rule="evenodd" d="M21.7373 6.66827C21.7373 8.01307 22.358 8.92678 23.7487 9.62495C24.8033 10.1544 24.9947 10.3231 24.9947 10.8011C24.9947 11.4524 24.514 11.7616 23.4873 11.7616C22.6987 11.7616 21.98 11.6398 21.1167 11.3306L20.7573 13.7812L20.8787 13.8046L21.3593 13.903C21.5273 13.9264 21.742 13.9733 22.0547 13.9967C22.6753 14.0436 23.1793 14.0951 23.5153 14.0951C26.292 14.0951 27.5847 12.9659 27.5847 10.5621C27.5847 9.1189 27.0573 8.25673 25.718 7.60541C24.6167 7.07593 24.4953 6.9541 24.4953 6.45273C24.4953 5.87639 24.9247 5.58587 25.788 5.58587C26.3153 5.58587 27.0107 5.65616 27.678 5.75456L28.0607 3.30393C27.3653 3.1821 26.3387 3.08839 25.7367 3.08839C22.7407 3.0837 21.714 4.69559 21.7373 6.66827Z" fill="#333333"/>
<path fill-rule="evenodd" clip-rule="evenodd" d="M77.8727 13.9032H75.3573L75.4787 12.8677C74.76 13.683 73.9947 14.0438 73.038 14.0438C71.0967 14.0438 69.832 12.2914 69.832 9.64392C69.832 6.1109 71.7967 3.13079 74.1393 3.13079C75.1707 3.13079 75.936 3.5853 76.678 4.57399L77.252 0.848846H79.8607L77.8727 13.9032ZM73.9713 11.4245C75.2173 11.4245 76.076 9.95787 76.076 7.84461C76.076 6.49981 75.572 5.75479 74.662 5.75479C73.4673 5.75479 72.604 7.24484 72.604 9.31124C72.604 10.7029 73.0613 11.4245 73.9713 11.4245Z" fill="#333333"/>
<path fill-rule="evenodd" clip-rule="evenodd" d="M40.5533 13.6875C39.6433 13.978 38.78 14.1185 37.8233 14.1185C34.8787 14.1185 33.3247 12.4832 33.3247 9.35786C33.3247 5.703 35.2893 3.03683 37.9447 3.03683C40.124 3.03683 41.51 4.55032 41.51 6.90723C41.51 7.67569 41.412 8.44414 41.174 9.52654H35.91C35.8867 9.69523 35.8867 9.76551 35.8867 9.86391C35.8867 11.115 36.6753 11.7382 38.2107 11.7382C39.144 11.7382 40.0073 11.5227 40.964 11.0635L40.5533 13.6875ZM39.0693 7.36174C39.0927 7.1462 39.0927 6.95409 39.0927 6.83226C39.0927 5.9654 38.64 5.46403 37.8467 5.46403C37.0067 5.46403 36.4093 6.13877 36.1713 7.36174H39.0693Z" fill="#333333"/>
<path fill-rule="evenodd" clip-rule="evenodd" d="M11.1067 13.9032H8.47466L9.982 3.88048L6.58466 13.9032H4.788L4.57333 3.95077L2.968 13.9032H0.503998L2.562 0.872253H6.36533L6.46333 8.95042L9.04866 0.872253H13.1647L11.1067 13.9032Z" fill="#333333"/>
<path fill-rule="evenodd" clip-rule="evenodd" d="M17.9293 9.18921C17.64 9.16578 17.5233 9.14235 17.332 9.14235C15.8247 9.14235 15.0827 9.69527 15.0827 10.7542C15.0827 11.4056 15.4653 11.8366 16.0393 11.8366C17.094 11.8366 17.8827 10.7542 17.9293 9.18921ZM19.8473 13.903H17.6447L17.6913 12.7972C17.0193 13.6875 16.1373 14.0717 14.9147 14.0717C13.4773 14.0717 12.4973 12.8956 12.4973 11.1853C12.4973 8.58944 14.2193 7.09939 17.1407 7.09939C17.4533 7.09939 17.836 7.12281 18.2187 7.16967C18.2887 6.80887 18.3167 6.66361 18.3167 6.4715C18.3167 5.77333 17.864 5.51093 16.618 5.51093C15.876 5.51093 15.0127 5.63276 14.4153 5.82487L14.0793 5.9467L13.8413 6.01699L14.2007 3.63665C15.5167 3.22899 16.4033 3.0603 17.36 3.0603C19.6327 3.0603 20.832 4.1427 20.832 6.16224C20.832 6.69173 20.7853 7.07596 20.6173 8.2755L20.09 12.0475L19.992 12.7222L19.922 13.2517L19.8753 13.636L19.8473 13.903Z" fill="#333333"/>
<path fill-rule="evenodd" clip-rule="evenodd" d="M61.3527 9.18917C61.0913 9.16574 60.9467 9.14231 60.7553 9.14231C59.248 9.14231 58.4827 9.69523 58.4827 10.7542C58.4827 11.4055 58.8653 11.8366 59.4393 11.8366C60.5173 11.8366 61.306 10.7542 61.3527 9.18917ZM63.2707 13.903H61.068L61.1147 12.7972C60.4427 13.6875 59.5607 14.0717 58.338 14.0717C56.9007 14.0717 55.9207 12.8956 55.9207 11.1853C55.9207 8.5894 57.6427 7.09935 60.564 7.09935C60.8533 7.09935 61.2593 7.12277 61.642 7.16963C61.712 6.80883 61.7353 6.66357 61.7353 6.47146C61.7353 5.77329 61.2827 5.51089 60.0367 5.51089C59.2947 5.51089 58.4313 5.63272 57.834 5.82483L57.4513 5.92323L57.2133 5.99352L57.5727 3.61318C58.8887 3.20552 59.7753 3.03683 60.732 3.03683C63.0047 3.03683 64.204 4.11923 64.204 6.13878C64.204 6.66826 64.1573 7.05249 63.9893 8.25203L63.4387 12.0006L63.3687 12.6753L63.2987 13.2048L63.252 13.5656L63.2707 13.903Z" fill="#333333"/>
<path fill-rule="evenodd" clip-rule="evenodd" d="M70.6673 3.22896C70.5973 3.20554 70.4993 3.20554 70.406 3.20554C69.5427 3.20554 69.0433 3.66005 68.2267 4.93456L68.4647 3.32268H66.0707L64.442 13.9218H67.0973C68.054 7.43205 68.292 6.32622 69.5613 6.32622C69.6313 6.32622 69.6313 6.32622 69.7527 6.32622C69.9907 5.05171 70.3267 4.11456 70.756 3.24771L70.6673 3.22896Z" fill="#333333"/>
<path fill-rule="evenodd" clip-rule="evenodd" d="M59.5607 24.2116C59.5607 26.6153 58.8187 28.0351 57.6473 28.0351C56.784 28.0585 56.2847 27.098 56.2847 25.6782C56.2847 23.996 57.05 22.0749 58.2493 22.0749C59.2247 22.0749 59.5607 23.1057 59.5607 24.2116ZM62.1693 24.235C62.1693 21.5688 60.8533 19.4743 58.3847 19.4743C55.538 19.4743 53.6947 21.9999 53.6947 25.725C53.6947 28.3912 54.796 30.5794 57.4747 30.5794C60.1813 30.5841 62.1693 28.6583 62.1693 24.235Z" fill="#333333"/>
<path fill-rule="evenodd" clip-rule="evenodd" d="M54.53 17.6282L54.124 20.463C53.2373 19.957 52.6167 19.7648 51.9213 19.7648C50.078 19.7648 48.7853 21.7844 48.7853 24.6427C48.7853 26.6154 49.6487 27.8149 51.0813 27.8149C51.702 27.8149 52.374 27.5994 53.186 27.1402L52.7567 30.1203C51.8467 30.4108 51.2493 30.5045 50.554 30.5045C47.8987 30.5045 46.2233 28.3397 46.2233 24.8816C46.2233 20.2194 48.5193 16.9487 51.8 16.9487C52.2293 16.9487 52.5887 16.9956 52.9013 17.094L53.9047 17.3845C54.2453 17.4829 54.3153 17.5063 54.53 17.6282Z" fill="#333333"/>
<path fill-rule="evenodd" clip-rule="evenodd" d="M38.1827 19.5493C38.1127 19.5259 38.0147 19.5259 37.9213 19.5259C37.1093 19.5259 36.652 19.9804 35.8867 21.2549L36.1247 19.643H33.8987L32.3867 30.2468H34.8507C35.7373 23.7571 35.9753 22.6512 37.1467 22.6512C37.2167 22.6512 37.2167 22.6512 37.338 22.6747C37.5527 21.4002 37.8653 20.463 38.2713 19.5962L38.1827 19.5493Z" fill="#333333"/>
<path fill-rule="evenodd" clip-rule="evenodd" d="M70.4527 30.1484H68.1053L68.2267 29.1129C67.5547 29.9282 66.836 30.289 65.9307 30.289C64.134 30.289 62.9393 28.5365 62.9393 25.8891C62.9393 22.3561 64.7827 19.3759 66.962 19.3759C67.9187 19.3759 68.6607 19.8305 69.3327 20.8426L69.8833 17.1174H72.324L70.4527 30.1484ZM66.7893 27.6509C67.9607 27.6509 68.754 26.1843 68.754 24.071C68.754 22.7262 68.3013 22.0046 67.438 22.0046C66.3133 22.0046 65.5247 23.4713 65.5247 25.5611C65.52 26.9527 65.9493 27.6509 66.7893 27.6509Z" fill="#333333"/>
<path fill-rule="evenodd" clip-rule="evenodd" d="M15.008 30.1015C14.168 30.392 13.356 30.5326 12.4693 30.5326C9.71599 30.5326 8.27866 28.8973 8.27866 25.7719C8.27866 22.1405 10.122 19.4509 12.586 19.4509C14.6207 19.4509 15.9133 20.941 15.9133 23.3213C15.9133 24.0898 15.8153 24.8582 15.6007 25.9406H10.7007C10.6773 26.1093 10.6773 26.1796 10.6773 26.278C10.6773 27.5056 11.4193 28.1288 12.8567 28.1288C13.7433 28.1288 14.532 27.9133 15.4187 27.4541L15.008 30.1015ZM13.622 23.7805C13.622 23.565 13.6453 23.3728 13.6453 23.251C13.6453 22.3842 13.216 21.8828 12.474 21.8828C11.6853 21.8828 11.1347 22.5575 10.892 23.7805H13.622Z" fill="#333333"/>
<path fill-rule="evenodd" clip-rule="evenodd" d="M44.408 30.1015C43.568 30.392 42.756 30.5326 41.8693 30.5326C39.0927 30.5326 37.6553 28.8973 37.6553 25.7719C37.6553 22.1405 39.4987 19.4509 41.9627 19.4509C43.9973 19.4509 45.3133 20.941 45.3133 23.3213C45.3133 24.0898 45.2153 24.8582 45.0007 25.9406H40.096C40.0727 26.1093 40.0727 26.1796 40.0727 26.278C40.0727 27.5056 40.8147 28.1288 42.252 28.1288C43.1387 28.1288 43.9273 27.9133 44.814 27.4541L44.408 30.1015ZM43.0173 23.7805C43.0407 23.565 43.0407 23.3728 43.0407 23.251C43.0407 22.3842 42.6113 21.8828 41.8693 21.8828C41.0807 21.8828 40.53 22.5575 40.2873 23.7805H43.0173Z" fill="#333333"/>
<path fill-rule="evenodd" clip-rule="evenodd" d="M78.876 30.1015C78.0127 30.392 77.2007 30.5326 76.3374 30.5326C73.584 30.5326 72.1234 28.8973 72.1234 25.7719C72.1234 22.1405 73.9667 19.4509 76.454 19.4509C78.4887 19.4509 79.7814 20.941 79.7814 23.3213C79.7814 24.0898 79.688 24.8582 79.4687 25.9406H74.5594C74.536 26.1093 74.536 26.1796 74.536 26.278C74.536 27.5056 75.278 28.1288 76.7154 28.1288C77.602 28.1288 78.3907 27.9133 79.2774 27.4541L78.876 30.1015ZM77.49 23.7805C77.49 23.565 77.5134 23.3728 77.5134 23.251C77.5134 22.3842 77.084 21.8828 76.342 21.8828C75.5534 21.8828 75.0027 22.5575 74.76 23.7805H77.49Z" fill="#333333"/>
<path fill-rule="evenodd" clip-rule="evenodd" d="M7.686 20.0319C7.20533 19.6945 6.538 19.4321 5.628 19.4321C4.62467 19.4321 3.83133 19.6477 3.83133 20.7066C3.83133 22.5809 7.47133 21.8827 7.47133 25.9218C7.47133 29.6001 5.07733 30.5607 2.898 30.5607C1.94133 30.5607 0.816667 30.2467 0 29.8625L0.597333 27.1682C1.10133 27.6227 2.08133 27.9367 2.92133 27.9367C3.71 27.9367 4.90933 27.7211 4.90933 26.3482C4.90933 24.2069 1.26933 25.0034 1.26933 21.2502C1.26933 17.8109 3.402 16.8034 5.46 16.8034C6.608 16.8034 7.70933 16.9721 8.33467 17.4032L7.686 20.0319Z" fill="#333333"/>
<path fill-rule="evenodd" clip-rule="evenodd" d="M22.2367 30.1015C21.7327 30.3405 21.042 30.5092 20.034 30.5092C17.878 30.5092 16.5387 28.3444 16.5387 25.7017C16.5387 22.2389 18.48 19.5025 21.3267 19.5025C21.9473 19.5025 22.9087 19.7649 23.6507 20.2006L23.1 22.7262C22.5727 22.3654 22.022 22.1499 21.448 22.1499C20.132 22.1499 19.1753 23.3776 19.1753 25.5377C19.1753 26.7887 19.8707 27.8196 20.9487 27.8196C21.5973 27.8196 22.05 27.6743 22.6007 27.3651L22.2367 30.1015Z" fill="#333333"/>
<path fill-rule="evenodd" clip-rule="evenodd" d="M31.4813 27.4353C31.36 28.3491 31.2433 29.2393 31.1686 30.1765H28.798L28.9893 28.4709H28.966C28.224 29.6236 27.4587 30.4201 26.0913 30.4201C24.6073 30.4201 23.7953 28.8317 23.7953 26.7887C23.7953 26.0671 23.842 25.6829 23.9867 24.5771L24.6587 19.6758H27.314L26.5953 24.6052C26.5253 25.1347 26.4273 25.6642 26.4273 26.2171C26.4273 26.8403 26.7166 27.4681 27.4306 27.4166C28.5086 27.4166 29.1527 26.0952 29.344 24.5302L30.086 19.6758H32.648L31.4813 27.4353Z" fill="#333333"/>
<path fill-rule="evenodd" clip-rule="evenodd" d="M81.3447 30.0546H80.934V28.2975H80.36V27.9133H81.9187V28.2975H81.3447V30.0546Z" fill="#333333"/>
<path fill-rule="evenodd" clip-rule="evenodd" d="M84 30.0546H83.6173V28.2741L83.258 30.0546H82.8753L82.516 28.2741V30.0546H82.1333V27.9133H82.7307L83.0667 29.5954H83.09L83.426 27.9133H84V30.0546Z" fill="#333333"/>
</g>
<defs>
<clipPath id="clip0">
<rect width="84" height="29.9745" fill="white" transform="translate(0 0.60965)"/>
</clipPath>
</defs>
</svg>
