<svg width="39" height="31" viewBox="0 0 39 31" fill="none" xmlns="http://www.w3.org/2000/svg">
<path d="M7.06959 30.6897V28.709C7.06959 27.9497 6.60051 27.4546 5.79639 27.4546C5.39433 27.4546 4.95876 27.5866 4.65722 28.0158C4.42268 27.6526 4.08763 27.4546 3.58505 27.4546C3.25 27.4546 2.91495 27.5536 2.64691 27.9167V27.5206H1.9433V30.6897H2.64691V28.9401C2.64691 28.3789 2.94845 28.1148 3.41753 28.1148C3.8866 28.1148 4.12113 28.4119 4.12113 28.9401V30.6897H4.82474V28.9401C4.82474 28.3789 5.15979 28.1148 5.59536 28.1148C6.06443 28.1148 6.29897 28.4119 6.29897 28.9401V30.6897H7.06959ZM17.4897 27.5206H16.3505V26.5632H15.6469V27.5206H15.0103V28.1478H15.6469V29.6003C15.6469 30.3266 15.9484 30.7557 16.7526 30.7557C17.0541 30.7557 17.3892 30.6567 17.6237 30.5246L17.4227 29.9304C17.2216 30.0625 16.9871 30.0955 16.8196 30.0955C16.4845 30.0955 16.3505 29.8974 16.3505 29.5673V28.1478H17.4897V27.5206ZM23.4536 27.4546C23.0515 27.4546 22.7835 27.6526 22.616 27.9167V27.5206H21.9124V30.6897H22.616V28.9071C22.616 28.3789 22.8505 28.0818 23.2861 28.0818C23.4201 28.0818 23.5876 28.1148 23.7216 28.1478L23.9227 27.4876C23.7887 27.4546 23.5876 27.4546 23.4536 27.4546ZM14.4407 27.7847C14.1057 27.5536 13.6366 27.4546 13.134 27.4546C12.3299 27.4546 11.7938 27.8507 11.7938 28.4779C11.7938 29.0061 12.1959 29.3032 12.8995 29.4022L13.2345 29.4352C13.6031 29.5013 13.8041 29.6003 13.8041 29.7654C13.8041 29.9964 13.5361 30.1615 13.067 30.1615C12.5979 30.1615 12.2294 29.9964 11.9948 29.8314L11.6598 30.3596C12.0283 30.6237 12.5309 30.7557 13.0335 30.7557C13.9716 30.7557 14.5077 30.3266 14.5077 29.7324C14.5077 29.1712 14.0722 28.8741 13.4021 28.775L13.067 28.742C12.7655 28.709 12.5309 28.643 12.5309 28.4449C12.5309 28.2138 12.7655 28.0818 13.134 28.0818C13.5361 28.0818 13.9381 28.2468 14.1392 28.3459L14.4407 27.7847ZM33.1366 27.4546C32.7345 27.4546 32.4665 27.6526 32.299 27.9167V27.5206H31.5954V30.6897H32.299V28.9071C32.299 28.3789 32.5335 28.0818 32.9691 28.0818C33.1031 28.0818 33.2706 28.1148 33.4046 28.1478L33.6057 27.4876C33.4716 27.4546 33.2706 27.4546 33.1366 27.4546ZM24.1572 29.1051C24.1572 30.0625 24.8273 30.7557 25.866 30.7557C26.335 30.7557 26.6701 30.6567 27.0052 30.3926L26.6701 29.8314C26.4021 30.0295 26.134 30.1285 25.8325 30.1285C25.2629 30.1285 24.8608 29.7324 24.8608 29.1051C24.8608 28.5109 25.2629 28.1148 25.8325 28.0818C26.134 28.0818 26.4021 28.1808 26.6701 28.3789L27.0052 27.8177C26.6701 27.5536 26.335 27.4546 25.866 27.4546C24.8273 27.4546 24.1572 28.1478 24.1572 29.1051ZM30.6572 29.1051V27.5206H29.9536V27.9167C29.7191 27.6196 29.384 27.4546 28.9484 27.4546C28.0438 27.4546 27.3402 28.1478 27.3402 29.1051C27.3402 30.0625 28.0438 30.7557 28.9484 30.7557C29.4175 30.7557 29.7526 30.5907 29.9536 30.2935V30.6897H30.6572V29.1051ZM28.0773 29.1051C28.0773 28.5439 28.4459 28.0818 29.049 28.0818C29.6186 28.0818 30.0206 28.5109 30.0206 29.1051C30.0206 29.6663 29.6186 30.1285 29.049 30.1285C28.4459 30.0955 28.0773 29.6663 28.0773 29.1051ZM19.6675 27.4546C18.7294 27.4546 18.0593 28.1148 18.0593 29.1051C18.0593 30.0955 18.7294 30.7557 19.701 30.7557C20.1701 30.7557 20.6392 30.6237 21.0077 30.3266L20.6727 29.8314C20.4046 30.0295 20.0696 30.1615 19.7345 30.1615C19.299 30.1615 18.8634 29.9634 18.7629 29.4022H21.1418C21.1418 29.3032 21.1418 29.2372 21.1418 29.1381C21.1753 28.1148 20.5722 27.4546 19.6675 27.4546ZM19.6675 28.0488C20.1031 28.0488 20.4046 28.3129 20.4716 28.808H18.7964C18.8634 28.3789 19.1649 28.0488 19.6675 28.0488ZM37.1237 29.1051V26.2661H36.4536V27.9167C36.2191 27.6196 35.884 27.4546 35.4484 27.4546C34.5438 27.4546 33.8402 28.1478 33.8402 29.1051C33.8402 30.0625 34.5438 30.7557 35.4484 30.7557C35.9175 30.7557 36.2526 30.5907 36.4536 30.2935V30.6897H37.1572V29.1051H37.1237ZM34.5438 29.1051C34.5438 28.5439 34.9124 28.0818 35.5155 28.0818C36.085 28.0818 36.4871 28.5109 36.4871 29.1051C36.4871 29.6663 36.085 30.1285 35.5155 30.1285C34.9124 30.0955 34.5438 29.6663 34.5438 29.1051ZM11.0232 29.1051V27.5206H10.3196V27.9167C10.085 27.6196 9.75 27.4546 9.31443 27.4546C8.40979 27.4546 7.70618 28.1478 7.70618 29.1051C7.70618 30.0625 8.40979 30.7557 9.31443 30.7557C9.7835 30.7557 10.1186 30.5907 10.3196 30.2935V30.6897H11.0232V29.1051ZM8.40979 29.1051C8.40979 28.5439 8.77835 28.0818 9.38144 28.0818C9.95103 28.0818 10.3531 28.5109 10.3531 29.1051C10.3531 29.6663 9.95103 30.1285 9.38144 30.1285C8.77835 30.0955 8.40979 29.6663 8.40979 29.1051ZM38.2964 30.2275C38.3299 30.2275 38.3969 30.2275 38.4304 30.2605C38.4639 30.2605 38.4974 30.2935 38.5309 30.3266C38.5644 30.3596 38.5979 30.3926 38.5979 30.4256C38.5979 30.4586 38.6314 30.4916 38.6314 30.5576C38.6314 30.5907 38.6314 30.6567 38.5979 30.6897C38.5644 30.7227 38.5644 30.7557 38.5309 30.7887C38.4974 30.8217 38.4639 30.8547 38.4304 30.8547C38.3969 30.8878 38.3634 30.8878 38.2964 30.8878C38.2629 30.8878 38.1959 30.8878 38.1624 30.8547C38.1289 30.8217 38.0954 30.8217 38.0619 30.7887C38.0283 30.7557 37.9948 30.7227 37.9948 30.6897C37.9613 30.6567 37.9613 30.6237 37.9613 30.5576C37.9613 30.5246 37.9613 30.4586 37.9948 30.4256C38.0283 30.3926 38.0283 30.3596 38.0619 30.3266C38.0954 30.2935 38.1289 30.2605 38.1624 30.2605C38.1959 30.2275 38.2629 30.2275 38.2964 30.2275ZM38.2964 30.7887C38.3299 30.7887 38.3634 30.7887 38.3969 30.7557C38.4304 30.7557 38.4639 30.7227 38.4639 30.6897C38.4974 30.6567 38.4974 30.6567 38.5309 30.6237C38.5309 30.5907 38.5644 30.5576 38.5644 30.5246C38.5644 30.4916 38.5644 30.4586 38.5309 30.4256C38.5309 30.3926 38.4974 30.3596 38.4639 30.3596C38.4304 30.3266 38.4304 30.3266 38.3969 30.2935C38.3634 30.2935 38.3299 30.2605 38.2964 30.2605C38.2629 30.2605 38.2294 30.2605 38.1959 30.2935C38.1624 30.2935 38.1289 30.3266 38.1289 30.3596C38.0954 30.3926 38.0954 30.3926 38.0619 30.4256C38.0619 30.4586 38.0283 30.4916 38.0283 30.5246C38.0283 30.5576 38.0283 30.5907 38.0619 30.6237C38.0619 30.6567 38.0954 30.6897 38.1289 30.6897C38.1624 30.7227 38.1624 30.7227 38.1959 30.7557C38.2294 30.7557 38.2629 30.7887 38.2964 30.7887ZM38.3299 30.3926C38.3634 30.3926 38.3969 30.3926 38.4304 30.4256C38.4639 30.4586 38.4639 30.4586 38.4639 30.4916C38.4639 30.5246 38.4639 30.5246 38.4304 30.5576C38.4304 30.5576 38.3969 30.5907 38.3634 30.5907L38.4639 30.6897H38.3969L38.2964 30.5907H38.2629V30.6897H38.1959V30.3926H38.3299ZM38.2294 30.4256V30.4916H38.2964H38.3299C38.3299 30.4916 38.3299 30.4916 38.3299 30.4586V30.4256H38.2964H38.2294ZM37.8608 20.192V19.7959H38.0283V19.7299H37.6263V19.7959H37.7938V20.192H37.8608ZM38.6314 20.192V19.7299H38.4974L38.3634 20.06L38.2294 19.7299H38.1289V20.192H38.2294V19.8289L38.3634 20.126H38.4639L38.5979 19.8289V20.192H38.6314ZM18.4278 22.4698C18.5283 22.5358 18.6289 22.6349 18.7294 22.7009C16.8196 23.9553 14.5077 24.6816 12.0619 24.6816C5.39433 24.6816 0 19.3667 0 12.7974C0 6.22813 5.39433 0.913269 12.0619 0.913269C14.5412 0.913269 16.8196 1.63952 18.7294 2.89396C18.6289 2.95999 18.5283 3.05902 18.4278 3.12504C15.5799 5.5679 13.9716 9.06712 13.9716 12.7974C13.9716 16.5277 15.5799 20.027 18.4278 22.4698ZM26.9381 0.94628C24.4588 0.94628 22.1804 1.67253 20.2706 2.92697C20.3711 2.993 20.4716 3.09203 20.5722 3.15805C23.4201 5.60091 25.0283 9.10013 25.0283 12.8304C25.0283 16.5277 23.3866 20.06 20.5722 22.5028C20.4716 22.5688 20.3711 22.6679 20.2706 22.7339C22.1804 23.9883 24.4923 24.7146 26.9381 24.7146C33.6057 24.7146 39 19.3997 39 12.8304C39 6.26114 33.6057 0.94628 26.9381 0.94628ZM19.5 3.48817C19.3325 3.62022 19.1985 3.71925 19.0309 3.8513C16.4845 6.03006 14.8763 9.23218 14.8763 12.8304C14.8763 16.3957 16.4845 19.6308 19.0309 21.8096C19.1649 21.9416 19.3325 22.0737 19.5 22.1727C19.6675 22.0407 19.8015 21.9416 19.9691 21.8096C22.5155 19.6308 24.1237 16.4287 24.1237 12.8304C24.1237 9.26519 22.5155 6.03006 19.9691 3.8513C19.8015 3.71925 19.6675 3.5872 19.5 3.48817Z" fill="white"/>
</svg>
