<svg width="119" height="27" viewBox="0 0 119 27" fill="none" xmlns="http://www.w3.org/2000/svg">
<g opacity="0.4" clip-path="url(#clip0)">
<path fill-rule="evenodd" clip-rule="evenodd" d="M113 26.5875H6C2.7 26.5875 0 23.8898 0 20.5926V6.60455C0 3.30735 2.7 0.60965 6 0.60965H113C116.3 0.60965 119 3.30735 119 6.60455V20.5926C119 23.8898 116.3 26.5875 113 26.5875ZM118 6.60455C118 3.80693 115.8 1.6088 113 1.6088H6C3.2 1.6088 1 3.80693 1 6.60455V20.5926C1 23.3903 3.2 25.5884 6 25.5884H113C115.8 25.5884 118 23.3903 118 20.5926V6.60455Z" fill="#333333"/>
<path d="M12.5 14.4978H11.8V17.5952H10.2V9.0025H12.7C14.7 9.0025 15.8 9.90174 15.8 11.6003C15.7 13.4987 14.4 14.4978 12.5 14.4978ZM12.5 10.3014H11.7V13.099H12.4C13.5 13.099 14.1 12.6994 14.1 11.7002C14.1 10.801 13.6 10.3014 12.5 10.3014ZM19.2 17.6951C17.6 17.6951 16.4 16.4961 16.4 14.5977C16.4 12.5994 17.6 11.5004 19.2 11.5004C20.8 11.5004 22 12.6994 22 14.5977C22 16.596 20.8 17.6951 19.2 17.6951ZM19.2 12.6994C18.3 12.6994 17.8 13.4987 17.8 14.5977C17.8 15.6968 18.3 16.4961 19.2 16.4961C20.1 16.4961 20.6 15.6968 20.6 14.5977C20.6 13.4987 20.1 12.6994 19.2 12.6994ZM29.4 17.5952H28L26.9 13.5986L25.8 17.5952H24.4L22.6 11.7002L24.1 11.5004L25.2 15.5969L26.3 11.6003H27.6L28.7 15.5969L29.7 11.6003H31.1L29.4 17.5952ZM37.2 14.8975H33.3C33.4 16.0965 34 16.596 34.9 16.596C35.7 16.596 36.3 16.2963 37 15.8966L37.2 17.0956C36.6 17.4953 35.8 17.795 34.8 17.795C33.1 17.795 31.9 16.7959 31.9 14.6977C31.9 12.6994 33.1 11.6003 34.6 11.6003C36.4 11.6003 37.2 12.9991 37.2 14.6977C37.2 14.6977 37.2 14.7976 37.2 14.8975ZM34.5 12.4995C33.9 12.4995 33.4 12.9991 33.3 13.9983H35.7C35.6 12.9991 35.3 12.4995 34.5 12.4995ZM40 14.1981V17.5952H38.5V11.6003H39.8L40 12.7993C40.4 12.0999 41 11.5004 41.9 11.5004L42.1 12.9991C41.2 12.9991 40.4 13.4987 40 14.1981ZM48.1 14.8975H44.2C44.3 16.0965 44.9 16.596 45.8 16.596C46.6 16.596 47.2 16.2963 47.9 15.8966L48.1 17.0956C47.5 17.4953 46.7 17.795 45.7 17.795C44 17.795 42.8 16.7959 42.8 14.6977C42.8 12.6994 44 11.6003 45.5 11.6003C47.3 11.6003 48.1 12.9991 48.1 14.6977C48.1 14.6977 48.1 14.7976 48.1 14.8975ZM45.4 12.4995C44.8 12.4995 44.3 12.9991 44.2 13.9983H46.6C46.5 12.9991 46.2 12.4995 45.4 12.4995ZM53.4 17.5952L53.3 16.7959C52.9 17.2954 52.3 17.795 51.5 17.795C50.2 17.795 49.2 16.8958 49.2 14.7976C49.2 12.5994 50.4 11.6003 51.8 11.6003C52.4 11.6003 52.8 11.7002 53.2 11.8001V8.90259L54.6 8.60284V17.5952H53.4ZM53.1 12.9991C52.7 12.7993 52.4 12.6994 51.9 12.6994C51.1 12.6994 50.5 13.2988 50.5 14.6977C50.5 15.8966 51 16.3962 51.7 16.3962C52.2 16.3962 52.7 16.0965 53.1 15.5969V12.9991ZM61.5 17.6951C60.6 17.6951 59.8 17.5952 59 17.2954V8.90259L60.6 8.60284V12.1998C61 11.8001 61.5 11.4005 62.3 11.4005C63.6 11.4005 64.6 12.2997 64.6 14.3979C64.5 16.696 63.3 17.6951 61.5 17.6951ZM61.9 12.7993C61.4 12.7993 61 13.099 60.6 13.5986V16.2963C60.9 16.3962 61.1 16.4961 61.5 16.4961C62.4 16.4961 63 15.8966 63 14.5977C63 13.3988 62.6 12.7993 61.9 12.7993ZM68.7 17.9949C68.2 19.3937 67.5 19.8932 66.4 19.8932C66.1 19.8932 65.9 19.8932 65.8 19.7933L65.6 18.5943C65.8 18.5943 66 18.6943 66.3 18.6943C66.8 18.6943 67.1 18.4944 67.4 17.8949L67.5 17.6951L65.3 11.8001L66.9 11.6003L68.3 15.8966L69.6 11.7002H71L68.7 17.9949Z" fill="#333333"/>
<path fill-rule="evenodd" clip-rule="evenodd" d="M110.8 15.5969H106.6C106.7 16.0965 106.8 16.2963 107.1 16.596C107.3 16.7959 107.7 16.8958 108.2 16.8958C109 16.8958 109.7 16.696 110.4 16.3962L110.7 18.0948C110.1 18.4944 109.1 18.7942 108 18.7942C106.8 18.7942 105.9 18.4944 105.3 17.8949C104.6 17.1955 104.2 16.0965 104.2 14.6977C104.2 12.0999 105.5 10.5012 107.7 10.5012C108.8 10.5012 109.6 10.9009 110.1 11.6003C110.6 12.2997 110.9 13.4987 110.9 14.6977C110.8 14.8975 110.8 15.3971 110.8 15.5969ZM107.5 12.1998C106.9 12.1998 106.6 12.8992 106.5 13.9983H108.4C108.4 12.8992 108.1 12.1998 107.5 12.1998ZM99.7 18.6943C99.3 18.6943 98.9 18.5943 98.6 18.4944V21.0922L96 21.5918V10.6012H98.2L98.3 11.4005C98.9 10.801 99.6 10.4013 100.3 10.4013C101.1 10.4013 101.7 10.7011 102.2 11.3006C102.7 12 103 12.9991 103 14.298C103 15.7967 102.7 16.9957 102 17.6951C101.2 18.5943 100.3 18.6943 99.7 18.6943ZM99.5 12.3996C99.4 12.3996 99 12.4995 98.5 12.8992V16.696C98.7 16.7959 98.9 16.8958 99.2 16.8958C99.6 16.8958 99.9 16.696 100.1 16.2963C100.3 15.8966 100.4 15.2972 100.4 14.4978C100.5 13.099 100.1 12.3996 99.5 12.3996ZM93.5 9.50209C92.8 9.50209 92.2 8.9026 92.2 8.20319C92.2 7.50379 92.8 6.9043 93.5 6.9043C94.2 6.9043 94.8 7.50379 94.8 8.20319C94.9 8.9026 94.3 9.50209 93.5 9.50209ZM89.6 13.3988V18.5943H87V10.6012H89.2L89.4 11.5004C89.6 10.801 90.1 10.4013 90.8 10.4013C91 10.4013 91.1 10.4013 91.3 10.5012V12.8992C91.1 12.8992 91 12.8992 90.8 12.8992C90.2 12.8992 89.9 12.9991 89.6 13.3988ZM84.6 12.4995V15.7967C84.6 16.3962 84.8 16.596 85.3 16.596C85.5 16.596 85.9 16.4961 86 16.4961V18.4944C85.7 18.5943 85.3 18.6943 84.7 18.6943C83.8 18.6943 83.2 18.4944 82.8 18.1947C82.3 17.795 82.1 17.0956 82.1 16.1964V12.4995H81L81.4 10.7011L82.2 10.6012L82.5 8.70277L84.7 8.30311V10.6012H86.3L86 12.4995H84.6ZM78.5 13.5986C79.9 14.0982 80.8 14.6977 80.8 16.0965C80.8 16.9957 80.5 17.5952 79.9 18.0948C79.4 18.4944 78.6 18.6943 77.7 18.6943C76.6 18.6943 75.4 18.3945 74.8 17.9949L75.1 16.0965C75.8 16.4961 76.9 16.7959 77.5 16.7959C78 16.7959 78.3 16.596 78.3 16.2963C78.3 15.9966 78 15.6968 77.1 15.3971C75.7 14.8975 74.9 14.298 74.9 12.8992C74.9 12.0999 75.2 11.5004 75.7 11.1007C76.2 10.7011 76.9 10.5012 77.8 10.5012C79 10.5012 79.7 10.801 80.1 11.0008L79.8 12.8992C79.3 12.5995 78.7 12.2997 77.9 12.2997C77.5 12.2997 77.2 12.4995 77.2 12.7993C77.3 13.099 77.7 13.2989 78.5 13.5986ZM94.8 18.5943H92.2V10.6012H94.8V18.5943Z" fill="#333333"/>
</g>
<defs>
<clipPath id="clip0">
<rect width="119" height="25.9779" fill="white" transform="translate(0 0.60965)"/>
</clipPath>
</defs>
</svg>
