<svg width="70" height="41" viewBox="0 0 70 41" fill="none" xmlns="http://www.w3.org/2000/svg">
<g opacity="0.4" clip-path="url(#clip0)">
<path fill-rule="evenodd" clip-rule="evenodd" d="M59.9315 27.2039C59.833 27.9884 59.7073 28.7454 59.5476 29.4682C58.8815 29.249 58.1136 28.8961 57.0262 28.9715C56.3772 29.016 55.6126 29.2661 55.6024 29.8553C55.5922 30.5096 56.6558 30.8967 57.2471 31.181C58.3141 31.6948 59.4592 32.3834 59.5476 33.7776C59.6155 34.8498 59.1228 35.7849 58.5621 36.3193C57.067 37.7444 53.7539 37.8917 51.4908 36.9839C51.6335 36.2234 51.7592 35.4492 51.8748 34.6648C52.7514 35.0416 53.9544 35.5486 55.2728 35.3841C55.8743 35.3088 56.6082 34.956 56.5879 34.3359C56.5607 33.5789 55.1573 33.1267 54.4505 32.7328C53.6281 32.2772 52.6937 31.5167 52.6427 30.3554C52.6087 29.5847 52.9078 28.8585 53.3019 28.3652C54.4675 26.899 57.4713 26.3784 59.9315 27.2039Z" fill="#333333"/>
<path fill-rule="evenodd" clip-rule="evenodd" d="M33.0699 12.4055H36.0908L34.2321 24.2271H31.2078L33.0699 12.4055Z" fill="#333333"/>
<path fill-rule="evenodd" clip-rule="evenodd" d="M22.6005 12.4055H27.2286C30.1713 12.4055 30.9359 14.1148 30.6165 16.1565C30.348 17.8624 29.1315 18.9997 27.5548 19.4039L30.484 24.2271H26.6883L24.4898 19.5855L23.7592 24.2271H20.7383L22.6005 12.4055ZM25.2509 14.7554L24.7854 17.722H25.6587C26.5082 17.722 27.3102 17.054 27.4461 16.2387C27.5786 15.4234 26.9942 14.7554 26.1446 14.7554H25.2509Z" fill="#333333"/>
<path fill-rule="evenodd" clip-rule="evenodd" d="M46.8694 12.4055H49.8937L48.0316 24.2271H45.0107L46.8694 12.4055Z" fill="#333333"/>
<path fill-rule="evenodd" clip-rule="evenodd" d="M52.1874 12.4055H58.8238L58.4194 14.9747H54.8073L54.4879 16.9957H57.9233L57.5189 19.5649H54.0835L53.7539 21.6579H57.366L56.9617 24.2271H50.3286L52.1874 12.4055Z" fill="#333333"/>
<path fill-rule="evenodd" clip-rule="evenodd" d="M14.1665 12.4055H20.8029L20.3986 14.9747H16.7864L16.467 16.9957H19.9024L19.4981 19.5649H16.0626L15.733 21.6579H19.3452L18.9408 24.2271H12.3078L14.1665 12.4055Z" fill="#333333"/>
<path fill-rule="evenodd" clip-rule="evenodd" d="M38.3811 12.4055H45.0888L44.6845 14.9747H40.9976L40.6748 16.9957H44.0287L43.6243 19.5649H40.2704L39.5364 24.2271H36.519L38.3811 12.4055Z" fill="#333333"/>
<path fill-rule="evenodd" clip-rule="evenodd" d="M60.601 12.4055H64.5393C69.232 12.4055 70.3024 15.9818 69.932 18.318C69.4053 21.6545 66.4558 24.2271 62.6772 24.2271H58.7388L60.601 12.4055ZM63.2209 14.9747C63.4384 14.9747 63.6456 14.9747 63.8461 14.9747C66.1568 14.9747 67.0607 16.6155 66.8092 18.2015C66.4728 20.3288 64.9573 21.6545 62.9762 21.6545C62.7112 21.6545 62.4563 21.6545 62.1675 21.6545L63.2209 14.9747Z" fill="#333333"/>
<path fill-rule="evenodd" clip-rule="evenodd" d="M0 10.7955H5.58981L6.25243 19.3834C9.95292 12.9296 13.7112 6.71908 17.5 0.618164H19.3248C15.3151 8.41131 11.3563 16.2558 7.5233 24.2271H3.41845L2.41602 14.7554C2.16796 12.4055 1.69903 11.4087 0 11.1552V10.7955Z" fill="#333333"/>
<path fill-rule="evenodd" clip-rule="evenodd" d="M2.11699 5.91063L6.88446 7.94884L7.29903 13.2996H7.64903L11.9748 5.91406V5.5441H2.11699V5.91063Z" fill="#333333"/>
<path fill-rule="evenodd" clip-rule="evenodd" d="M24.1534 32.6951C24.8772 32.6951 25.3665 33.3631 25.251 34.1852C25.1354 35.0073 24.4524 35.6753 23.732 35.6753C23.0083 35.6753 22.5189 35.0073 22.6345 34.1852C22.75 33.3631 23.4296 32.6951 24.1534 32.6951ZM21.7102 27.0052H23.6675L23.0083 31.664C23.5655 31.1193 24.2486 30.7836 25.0131 30.7836C26.583 30.7836 27.6126 32.308 27.334 34.1886C27.0553 36.0692 25.5772 37.597 24.0073 37.597C23.2325 37.597 22.6786 37.2442 22.3015 36.655L22.1961 37.3949H20.2388L21.7102 27.0052Z" fill="#333333"/>
<path fill-rule="evenodd" clip-rule="evenodd" d="M27.5039 30.9446H29.8485L30.8985 34.2469L32.9374 30.9446H35.2073L29.2539 40.5841H26.9874L29.4951 36.518L27.5039 30.9446Z" fill="#333333"/>
<path fill-rule="evenodd" clip-rule="evenodd" d="M46.8694 37.3915L48.5888 27.0018H51.4024L49.683 37.3915H46.8694Z" fill="#333333"/>
<path fill-rule="evenodd" clip-rule="evenodd" d="M44.518 26.9813C43.5495 29.2832 42.7204 31.7257 41.7214 33.9968L41.4291 32.6334C41.4291 32.63 41.4257 32.6232 41.4257 32.6163L41.4767 32.8595C41.2592 32.1436 40.8922 31.4653 40.4199 30.8453C40.4063 30.8282 40.3961 30.8145 40.3825 30.7973C40.301 30.6911 40.2126 30.5884 40.1243 30.4822C40.0699 30.4205 40.0155 30.3554 39.9612 30.2938C39.2816 29.5436 38.4558 28.8962 37.5825 28.3823L40.0835 37.3676H43.0976C44.518 33.8632 46.0471 30.4719 47.4811 26.9813C46.4922 26.9813 45.5068 26.9813 44.518 26.9813Z" fill="#333333"/>
<path fill-rule="evenodd" clip-rule="evenodd" d="M39.2102 26.9847H34.6126V27.2108C37.2597 27.7315 40.6 29.9683 41.4767 32.8629L40.4879 28.0226C40.3554 27.2793 39.8389 26.9847 39.2102 26.9847Z" fill="#333333"/>
<path fill-rule="evenodd" clip-rule="evenodd" d="M69.4121 37.4258C68.5524 37.4258 67.6961 37.4258 66.8364 37.4258C66.6699 36.9291 66.6223 36.3159 66.4524 35.8226C65.2835 35.8226 64.1146 35.8226 62.9456 35.8226L62.2864 37.4258C61.301 37.4258 60.3121 37.4258 59.3267 37.4258L63.1631 28.5296C63.333 28.1391 63.6388 27.6047 63.7646 27.3683C63.9583 27.0087 64.7126 26.9813 65.0354 26.9813H67.1626L69.4121 37.4258ZM65.1476 29.8587L63.717 33.7228H66.0345L65.1476 29.8587Z" fill="#333333"/>
</g>
<defs>
<clipPath id="clip0">
<rect width="70" height="39.966" fill="white" transform="translate(0 0.618164)"/>
</clipPath>
</defs>
</svg>
