<svg width="74" height="25" viewBox="0 0 74 25" fill="none" xmlns="http://www.w3.org/2000/svg">
<path d="M69.1897 1.36744C70.7958 9.0848 72.4 16.7877 74 24.4762C73.9877 24.5009 73.9835 24.5071 73.9794 24.5113C73.9753 24.5154 73.9692 24.5216 73.963 24.5216C73.9157 24.5257 73.8684 24.5319 73.8211 24.5319C72.0606 24.5319 70.3002 24.5319 68.5233 24.5319C68.5048 24.4659 68.4842 24.4101 68.4719 24.3524C68.256 23.3248 68.0421 22.2951 67.8261 21.2675C67.785 21.0673 67.783 21.0673 67.5711 21.0673C65.1526 21.0673 62.732 21.0673 60.3134 21.0694C60.2456 21.0694 60.1777 21.0694 60.0913 21.0694C59.6738 22.2249 59.2605 23.3722 58.845 24.5236C56.7597 24.5236 54.6887 24.5236 52.5951 24.5236C52.6342 24.4246 52.665 24.3421 52.6979 24.2616C55.2892 18.0567 57.8785 11.854 60.4697 5.64913C60.8358 4.77422 61.1937 3.89725 61.568 3.02646C61.9279 2.19076 62.549 1.64807 63.4353 1.43141C63.6328 1.38188 63.8405 1.35918 64.0441 1.35918C65.7017 1.35299 67.3614 1.35712 69.021 1.35712C69.0683 1.35506 69.1156 1.36331 69.1897 1.36744ZM61.8456 16.3234C63.4847 16.3234 65.1238 16.3234 66.7629 16.3234C66.7711 16.1233 65.0354 7.79926 64.9593 7.6672C64.8544 7.83846 61.86 16.148 61.8456 16.3234Z" fill="white"/>
<path d="M18.4085 24.5379C16.2964 24.5379 14.2048 24.5379 12.0989 24.5379C12.0783 24.476 12.0536 24.4141 12.0372 24.3501C10.4721 18.2691 8.90912 12.1902 7.342 6.11121C7.27619 5.85121 7.19599 5.59534 7.11372 5.34154C6.93686 4.7844 6.58107 4.37377 6.07721 4.08489C5.55895 3.78775 5.01395 3.54426 4.45867 3.3276C3.07665 2.78697 1.65349 2.38666 0.211828 2.05444C0.146017 2.04 0.0822634 2.02143 0 1.99873C0.0452448 1.78 0.0884331 1.57366 0.133678 1.35287C0.209772 1.34668 0.275582 1.33842 0.341393 1.33842C3.64632 1.33842 6.9492 1.34668 10.2541 1.33842C11.6999 1.3343 12.794 2.3 13.0593 3.67013C13.3411 5.12075 13.6084 6.57342 13.8799 8.02403C14.1884 9.66448 14.4948 11.3049 14.8012 12.9475C15.0439 14.2371 15.2845 15.5268 15.5272 16.8164C15.5416 16.8969 15.5622 16.9753 15.6115 17.0661C15.6403 17.0021 15.6732 16.9382 15.7 16.8701C16.6316 14.5054 17.5653 12.1406 18.4969 9.77798C19.5787 7.0377 20.6584 4.29536 21.7401 1.55509C21.8245 1.33842 21.7854 1.34668 22.0486 1.34668C23.9818 1.34668 25.915 1.34668 27.8482 1.34874C27.9161 1.34874 27.9839 1.34874 28.0909 1.34874C24.8559 9.09084 21.6353 16.8082 18.4085 24.5379Z" fill="white"/>
<path d="M35.8176 23.6793C36.1816 21.9728 36.5374 20.3014 36.8994 18.6052C36.9899 18.6444 37.0619 18.6754 37.1338 18.7084C37.9338 19.086 38.7483 19.4285 39.6038 19.6597C40.8521 19.996 42.1252 20.1116 43.4126 20.0455C44.0234 20.0146 44.6198 19.8846 45.1874 19.639C45.5226 19.4925 45.8332 19.3068 46.0923 19.0427C46.773 18.3555 46.8183 17.3506 46.1787 16.6243C45.971 16.3891 45.7242 16.1848 45.4712 15.9991C44.9057 15.5822 44.2805 15.2645 43.6532 14.957C42.8409 14.5588 42.0429 14.1296 41.2984 13.6096C40.665 13.168 40.0809 12.6707 39.5832 12.0764C38.9868 11.3645 38.5652 10.5639 38.3822 9.64564C38.2567 9.01216 38.2567 8.37455 38.3431 7.73694C38.6434 5.51458 39.8362 3.87825 41.6748 2.67731C42.7792 1.9551 43.9967 1.50733 45.28 1.23289C46.662 0.935747 48.0625 0.855272 49.4713 0.952255C50.9705 1.05543 52.4225 1.38558 53.8353 1.89526C53.8724 1.9097 53.9094 1.92828 53.9649 1.95304C53.6194 3.57286 53.2759 5.18855 52.9263 6.82488C52.8564 6.80012 52.8009 6.78361 52.7474 6.75885C51.7253 6.30902 50.662 6.00156 49.5556 5.85093C48.6486 5.72712 47.7396 5.6941 46.8306 5.83855C46.3535 5.91489 45.8969 6.05315 45.4774 6.30076C45.1648 6.48441 44.8974 6.71552 44.7082 7.02917C44.3895 7.55535 44.4121 8.11661 44.772 8.61391C44.955 8.86772 45.1771 9.08438 45.4363 9.25359C45.8373 9.51771 46.2404 9.77771 46.6579 10.0129C47.3201 10.3864 47.9988 10.731 48.6651 11.0983C49.3623 11.4842 50.0307 11.9134 50.6456 12.4272C51.3551 13.0194 51.9495 13.7024 52.3505 14.5443C52.6734 15.2253 52.842 15.9433 52.8626 16.6945C52.9078 18.2854 52.5294 19.7608 51.6142 21.0773C50.8985 22.109 49.9566 22.8828 48.8605 23.4729C47.8198 24.0342 46.7072 24.3912 45.5514 24.614C44.5787 24.8018 43.5977 24.8988 42.6085 24.8926C40.5498 24.8782 38.5241 24.614 36.5621 23.9579C36.3174 23.8815 36.0788 23.7804 35.8176 23.6793Z" fill="white"/>
<path d="M36.6379 1.35712C34.9886 9.10124 33.3453 16.8165 31.7001 24.5338C29.7052 24.5338 27.7329 24.5338 25.7298 24.5338C27.3792 16.802 29.0265 9.08267 30.6738 1.35712C32.6626 1.35712 34.6328 1.35712 36.6379 1.35712Z" fill="white"/>
</svg>
